<svg width="17" height="17" viewBox="0 0 17 17" fill="none" xmlns="http://www.w3.org/2000/svg">
<path d="M14.1192 9.23694C13.9855 10.2569 13.5766 11.2212 12.9364 12.0265C12.2963 12.8317 11.449 13.4475 10.4854 13.8078C9.5219 14.1681 8.47845 14.2594 7.46701 14.0717C6.45557 13.8841 5.51428 13.4247 4.7441 12.7427C3.97392 12.0608 3.40391 11.182 3.09519 10.2007C2.78647 9.21945 2.75069 8.17264 2.99169 7.17257C3.23269 6.17249 3.74137 5.25689 4.46319 4.52395C5.18501 3.791 6.09273 3.26837 7.089 3.01211C9.8508 2.30378 12.7096 3.7254 13.765 6.37457" stroke="#F58873" stroke-linecap="round" stroke-linejoin="round"/>
<path d="M14.1667 2.83301V6.37467H10.625" stroke="#F58873" stroke-linecap="round" stroke-linejoin="round"/>
</svg>
